<?xml version="1.0" encoding="UTF-8" standalone="no"?> <!-- Created with Vectornator for iOS (http://vectornator.io/) --><!DOCTYPE svg PUBLIC "-//W3C//DTD SVG 1.1//EN" "http://www.w3.org/Graphics/SVG/1.1/DTD/svg11.dtd">
<svg height="100%" xmlns="http://www.w3.org/2000/svg" xml:space="preserve" style="fill-rule:nonzero;clip-rule:evenodd;stroke-linecap:round;stroke-linejoin:round;" width="100%" version="1.1" xmlns:vectornator="http://vectornator.io" viewBox="0 0 226.8 153.09" xmlns:xlink="http://www.w3.org/1999/xlink">
<metadata>
<vectornator:setting value="false" key="UndoHistoryDisabled"/>
<vectornator:setting value="true" key="WDDisplayWhiteBackground"/>
<vectornator:setting key="WDOutlineMode" value="false"/>
<vectornator:setting value="Millimeters" key="WDUnits"/>
<vectornator:setting key="VNPencilOnly" value="false"/>
<vectornator:setting value="false" key="WDSnapToPoints"/>
<vectornator:setting key="WDSnapToGrid" value="true"/>
<vectornator:setting value="false" key="WDIsolateActiveLayer"/>
<vectornator:setting key="VNDimensionsVisible" value="true"/>
<vectornator:setting key="WDRulersVisible" value="true"/>
<vectornator:setting key="WDGuidesVisible" value="true"/>
<vectornator:setting key="IsTimeLapseWatermarkDisabled" value="false"/>
<vectornator:setting value="false" key="WDDynamicGuides"/>
<vectornator:setting key="VNSnapToGuides" value="false"/>
<vectornator:setting key="WDCMYKEnabledKey" value="false"/>
<vectornator:setting key="WDSnapToEdges" value="false"/>
</metadata>
<defs/>
<g vectornator:layerName="图层 7" id="图层 7">
<path opacity="1" fill="#6d95d5" d="M197.187+89.6152L185.79+106.088L197.187+122.593L197.187+122.753L142.722+122.753L142.722+89.4872L197.187+89.4872L197.187+89.6152Z"/>
<path opacity="1" fill="#bb6dd5" d="M179.935+97.2206L113.081+56.8283L111.034+114.33L179.935+97.2206Z"/>
<path d="M30.8688+89.6152L42.2666+106.088L30.8688+122.593L30.8688+122.753L85.3346+122.753L85.3346+89.4872L30.8688+89.4872L30.8688+89.6152Z" opacity="1" fill="#6d95d5"/>
<path d="M48.1208+97.2206L114.975+56.8283L117.022+114.33L48.1208+97.2206Z" opacity="1" fill="#bc6dd5"/>
</g>
<g id="图层 5" vectornator:layerName="图层 5">
<path opacity="1" stroke-linecap="round" fill="#65c081" d="M114.158+41.6049C97.1074+41.6049+81.9116+49.4525+71.9388+61.7299C73.6684+64.1934+74.6888+67.1765+74.6888+70.4174C74.6888+78.3584+68.5734+84.8047+60.8138+85.4486C60.1414+88.8653+59.7826+92.3974+59.7825+96.0111C59.7825+104.665+61.8761+112.812+65.47+120.074C66.0567+120.021+66.6197+119.917+67.22+119.917C78.0333+119.917+86.7825+128.667+86.7825+139.48C86.7825+140.606+86.6527+141.687+86.47+142.761C88.0664+143.708+89.744+144.507+91.4388+145.292C93.5529+142.798+96.5847+141.167+100.064+141.167C105.469+141.167+109.816+145.029+111.064+150.167C112.097+150.227+113.109+150.386+114.158+150.386C144.197+150.386+168.564+126.051+168.564+96.0111C168.564+85.7022+165.641+76.1033+160.658+67.8861C152.375+66.2727+145.984+59.5062+144.814+51.0736C136.08+45.0992+125.534+41.6049+114.158+41.6049Z" stroke="#303fc8" stroke-opacity="0" stroke-width="0.1" stroke-linejoin="round"/>
<path stroke-linejoin="round" stroke-linecap="round" fill="#95e5ad" stroke-opacity="0" stroke-width="0.1" d="M71.9388+61.7299C66.4548+68.4812+62.5582+76.5842+60.8138+85.4486C68.5734+84.8047+74.6888+78.3584+74.6888+70.4174C74.6888+67.1765+73.6684+64.1934+71.9388+61.7299Z" opacity="1" stroke="#303fc8"/>
<path opacity="1" stroke-opacity="0" d="M104.091+52.2086L117.696+50.5046C128.343+49.1712+138.055+56.7213+139.388+67.3684L141.092+80.9733C142.426+91.6204+134.876+101.333+124.229+102.666L110.624+104.37C99.9765+105.704+90.2643+98.1534+88.9308+87.5063L87.2269+73.9014C85.8934+63.2543+93.4436+53.5421+104.091+52.2086Z" fill="#ffffff" stroke-linejoin="round" stroke-linecap="round" stroke="#303fc8" stroke-width="0.1"/>
<path stroke="#303fc8" stroke-linecap="round" stroke-width="0.1" d="M97.603+76.6034C97.603+67.4743+104.916+60.0736+113.937+60.0736C122.957+60.0736+130.27+67.4743+130.27+76.6034C130.27+85.7325+122.957+93.1331+113.937+93.1331C104.916+93.1331+97.603+85.7325+97.603+76.6034Z" opacity="1" stroke-linejoin="round" stroke-opacity="0" fill="#e58373"/>
<path stroke-opacity="0" opacity="1" stroke-linejoin="round" stroke-width="0.1" fill="#30312e" stroke="#303fc8" d="M101.824+76.3688C101.824+69.4825+107.402+63.9001+114.282+63.9001C121.163+63.9001+126.741+69.4825+126.741+76.3688C126.741+83.2551+121.163+88.8376+114.282+88.8376C107.402+88.8376+101.824+83.2551+101.824+76.3688Z" stroke-linecap="round"/>
<path stroke-linejoin="round" stroke-width="0.1" fill="#ffffff" stroke="#303fc8" opacity="1" d="M118.083+65.7657C118.083+63.9997+119.515+62.5681+121.281+62.5681C123.047+62.5681+124.478+63.9997+124.478+65.7657C124.478+67.5317+123.047+68.9633+121.281+68.9633C119.515+68.9633+118.083+67.5317+118.083+65.7657Z" stroke-opacity="0" stroke-linecap="round"/>
<path stroke-opacity="0" stroke-linejoin="round" stroke="#303fc8" d="M76.2685+110.345C76.2685+107.582+78.515+105.342+81.2863+105.342C84.0575+105.342+86.304+107.582+86.304+110.345C86.304+113.109+84.0575+115.349+81.2863+115.349C78.515+115.349+76.2685+113.109+76.2685+110.345Z" opacity="1" stroke-width="0.1" fill="#198539" stroke-linecap="round"/>
<path stroke="#303fc8" fill="#95e5ad" stroke-linejoin="round" stroke-linecap="round" stroke-width="0.1" opacity="1" d="M100.064+141.167C96.5847+141.167+93.5529+142.798+91.4388+145.292C97.4661+148.087+104.084+149.766+111.064+150.167C109.816+145.029+105.469+141.167+100.064+141.167Z" stroke-opacity="0"/>
<path opacity="1" fill="#198539" stroke-opacity="0" stroke-linecap="round" stroke-width="0.1" stroke-linejoin="round" d="M67.22+119.917C66.6197+119.917+66.0567+120.021+65.47+120.074C70.1476+129.525+77.4413+137.405+86.47+142.761C86.6527+141.687+86.7825+140.606+86.7825+139.48C86.7825+128.667+78.0333+119.917+67.22+119.917Z" stroke="#303fc8"/>
<path stroke-linecap="round" opacity="1" stroke="#303fc8" stroke-opacity="0" fill="#95e5ad" d="M144.814+51.0736C145.984+59.5062+152.375+66.2727+160.658+67.8861C156.619+61.2272+151.227+55.4607+144.814+51.0736Z" stroke-linejoin="round" stroke-width="0.1"/>
<g opacity="1">
<path stroke-width="0.1" opacity="1" stroke-linejoin="round" d="M122.695+118.47L122.757+122.533C122.773+123.789+121.763+124.829+120.507+124.845C119.251+124.862+118.211+123.851+118.195+122.595L118.132+118.564C117.665+118.604+117.143+118.701+116.663+118.752L116.726+122.752C116.742+124.007+115.732+125.048+114.476+125.064C113.22+125.081+112.18+124.07+112.163+122.814L112.132+119.408C109.249+119.939+106.393+120.674+103.882+121.814C102.743+122.331+101.846+123.413+102.413+124.939C103.339+127.43+114.077+137.369+119.538+135.908C124.016+134.71+124.98+130.758+127.976+126.564C130.391+123.182+131.322+122.125+131.226+120.72C131.13+119.316+130.1+118.533+128.07+118.377C127.393+118.325+124.67+118.452+122.695+118.47Z" stroke="#303fc8" stroke-linecap="round" fill="#7552c0" stroke-opacity="0"/>
<path stroke-linejoin="round" stroke-linecap="round" opacity="1" stroke-opacity="0" d="M122.695+118.47C121.041+118.486+120.291+118.38+118.132+118.564L118.195+122.595C118.211+123.851+119.251+124.862+120.507+124.845C121.763+124.829+122.773+123.789+122.757+122.533L122.695+118.47Z" stroke-width="0.1" stroke="#303fc8" fill="#ffe85d"/>
<path opacity="1" stroke-width="0.1" stroke="#303fc8" stroke-opacity="0" fill="#ffe85d" stroke-linecap="round" d="M116.663+118.752C115.178+118.909+113.67+119.124+112.132+119.408L112.163+122.814C112.18+124.07+113.22+125.081+114.476+125.064C115.732+125.048+116.742+124.007+116.726+122.752L116.663+118.752Z" stroke-linejoin="round"/>
</g>
<g opacity="1">
<path stroke-linejoin="round" stroke-opacity="0" opacity="1" stroke-linecap="round" stroke-width="0.1" stroke="#303fc8" d="M163.06+26.1187C167.668+25.2448+179.165+29.5768+184.635+29.5933C194.753+29.6238+208.69+24.5511+213.92+23.7516C222.306+22.4701+224.785+23.803+226.098+25.6693C228.09+28.5027+224.47+35.449+219.139+37.7359C214.458+39.7441+205.659+46.6076+181.687+42.8436C174.12+41.6555+164.516+38.0164+160.819+33.2531C157.682+29.212+160.702+26.566+163.06+26.1187Z" fill="#bec9df"/>
<path stroke-linecap="round" stroke-width="0.1" d="M167.847+35.5416C167.847+35.5416+173.084+38.1943+177.503+39.1901C181.922+40.186+208.412+42.2342+212.591+41.3207C216.77+40.4073+218.53+42.2763+217.695+44.718C216.591+47.9484+212.922+51.9143+207.55+52.5013C196.538+53.7043+183.629+50.1524+176.459+46.011C169.29+41.8696+166.336+41.606+165.699+39.0003C165.062+36.3947+167.847+35.5416+167.847+35.5416Z" stroke-linejoin="round" opacity="1" fill="#bec9df" stroke-opacity="0" stroke="#303fc8"/>
<path fill="#bec9df" stroke-opacity="0" opacity="1" stroke-linejoin="round" d="M172.033+38.9701C173.991+40.7394+190.697+50.3094+193.759+51.7137C197.161+53.2742+204.659+52.7228+206.281+55.6998C207.975+58.8089+201.214+61.6083+198.332+61.1401C195.952+60.7535+190.045+59.5453+180.596+52.5427C171.147+45.5401+166.797+40.6796+166.179+39.174C165.688+37.9777+165.188+36.5843+166.616+36.1137C167.84+35.7105+169.642+36.8094+172.033+38.9701Z" stroke-width="0.1" stroke="#303fc8" stroke-linecap="round"/>
<path stroke="#303fc8" fill="#bec9df" opacity="1" stroke-linejoin="round" stroke-width="0.1" stroke-linecap="round" stroke-opacity="0" d="M167.311+39.6016C169.787+38.3782+183.39+52.2385+185.669+55.744C187.949+59.2495+186.365+61.4925+185.219+61.9445C184.073+62.3965+182.665+62.3624+179.592+58.3134C176.519+54.2644+172.674+46.9914+171.274+45.1277C169.874+43.2639+165.712+40.3921+167.311+39.6016Z"/>
<path stroke-opacity="0" fill="#bec9df" stroke-linejoin="round" d="M165.99+34.8456C167.417+36.6903+173.626+47.419+174.06+49.7524C174.505+52.1445+173.086+54.9694+171.685+54.586C170.283+54.2026+169.743+51.7871+169.479+49.318C169.214+46.8488+166.936+41.4622+165.301+38.9808C163.665+36.4993+160.289+33.2887+160.85+32.153C161.411+31.0173+162.113+30.9276+163.08+31.6279C164.007+32.2993+164.562+33.001+165.99+34.8456Z" stroke-width="0.1" stroke="#303fc8" opacity="1" stroke-linecap="round"/>
</g>
<g opacity="1">
<path stroke-width="0.1" stroke-linecap="round" stroke="#303fc8" opacity="1" stroke-opacity="0" d="M166.353+31.2497C167.961+28.4154+171.986+30.6897+175.586+31.3906C179.187+32.0916+188.469+32.9707+192.999+31.5749C197.529+30.1792+210.593+25.6252+214.787+24.9885C218.982+24.3517+221.518+24.0849+223.298+24.8968C225.078+25.7087+225.535+28.2855+224.06+31.1017C222.184+34.6859+216.486+39.0604+209.598+40.2177C196.566+42.407+182.191+38.9553+175.602+36.587C169.014+34.2186+165.245+33.2027+166.353+31.2497Z" fill="#9998c4" stroke-linejoin="round"/>
<path stroke-linecap="round" d="M184.648+40.0033C188.062+40.9215+205.058+43.2524+209.05+42.4641C213.042+41.6759+216.469+41.7111+215.679+44.0907C214.889+46.4704+212.21+48.9075+208.881+50.0787C205.552+51.2499+199.052+51.0295+195.896+50.2369C187.248+48.065+181.877+44.3042+180.637+42.2898C179.79+40.913+181.234+39.0851+184.648+40.0033Z" stroke="#303fc8" stroke-linejoin="round" opacity="1" stroke-width="0.1" stroke-opacity="0" fill="#9998c4"/>
<path opacity="1" stroke-width="0.1" stroke-linecap="round" d="M180.396+44.0278C183.036+45.5901+189.614+50.3839+192.327+51.6705C195.04+52.957+199.223+53.739+201.156+54.1441C204.802+54.9084+205.366+57.4095+201.833+58.7278C198.299+60.046+191.812+57.9594+188.53+55.3964C185.247+52.8335+180.048+48.0718+178.971+45.5309C178.387+44.1509+178.54+42.929+180.396+44.0278Z" stroke-opacity="0" stroke-linejoin="round" fill="#9998c4" stroke="#303fc8"/>
</g>
<g opacity="1">
<path stroke-linecap="round" stroke-linejoin="round" stroke-opacity="0" d="M63.7187+25.5425C59.099+24.7359+47.6665+29.2352+42.1968+29.3315C32.0809+29.5097+18.0712+24.6409+12.8294+23.9179C4.4263+22.7588+1.96637+24.1278+0.681368+26.0131C-1.26946+28.8752+2.45213+35.7679+7.81534+37.9768C12.5251+39.9165+21.4234+46.6509+45.3384+42.5373C52.8869+41.239+62.4363+37.4602+66.0641+32.6433C69.1418+28.5569+66.0828+25.9553+63.7187+25.5425Z" stroke-width="0.1" stroke="#303fc8" fill="#bdc9de" opacity="1"/>
<path stroke-width="0.1" stroke-linecap="round" stroke-opacity="0" fill="#bdc9de" opacity="1" stroke-linejoin="round" stroke="#303fc8" d="M59.0695+35.0342C59.0695+35.0342+53.8728+37.7631+49.4686+38.8233C45.0644+39.8835+18.6067+42.318+14.4152+41.4657C10.2237+40.6133+8.49111+42.5078+9.36121+44.9371C10.5123+48.1511+14.2383+52.063+19.6191+52.5715C30.6467+53.6136+43.5029+49.8737+50.6114+45.6281C57.7198+41.3826+60.6697+41.0759+61.2686+38.4612C61.8674+35.8466+59.0695+35.0342+59.0695+35.0342Z"/>
<path opacity="1" stroke-linecap="round" stroke="#303fc8" d="M54.9341+38.5234C53.0023+40.3211+36.4379+50.1339+33.3972+51.5827C30.0181+53.1927+22.513+52.7508+20.9344+55.7511C19.2858+58.8846+26.0865+61.585+28.9619+61.0748C31.3359+60.6536+37.225+59.3593+46.5706+52.2196C55.9161+45.0798+60.1945+40.1564+60.7906+38.6419C61.2641+37.4385+61.7444+36.038+60.3089+35.5882C59.0791+35.203+57.2932+36.3281+54.9341+38.5234Z" fill="#bdc9de" stroke-linejoin="round" stroke-width="0.1" stroke-opacity="0"/>
<path fill="#bdc9de" d="M59.6648+39.0859C57.1713+37.8988+43.7728+51.9561+41.5445+55.4945C39.3162+59.0329+40.9329+61.2526+42.0851+61.6878C43.2372+62.123+44.6453+62.0684+47.6589+57.975C50.6725+53.8815+54.4106+46.5533+55.7833+44.6693C57.156+42.7853+61.276+39.853+59.6648+39.0859Z" stroke-linejoin="round" stroke-opacity="0" stroke-width="0.1" opacity="1" stroke="#303fc8" stroke-linecap="round"/>
<path fill="#bdc9de" opacity="1" d="M60.9169+34.3112C59.5164+36.1765+53.4649+46.9946+53.065+49.3341C52.655+51.7325+54.1149+54.5364+55.5105+54.1326C56.9061+53.7288+57.4111+51.3057+57.6395+48.8329C57.8678+46.3602+60.067+40.9409+61.6661+38.4358C63.2651+35.9308+66.5943+32.6712+66.0169+31.5439C65.4395+30.4165+64.7361+30.337+63.7796+31.0514C62.8627+31.7362+62.3174+32.446+60.9169+34.3112Z" stroke-width="0.1" stroke-linejoin="round" stroke-opacity="0" stroke="#303fc8" stroke-linecap="round"/>
</g>
<g opacity="1">
<path stroke-opacity="0" stroke-linejoin="round" stroke-width="0.1" opacity="1" d="M61.1964+31.4845C59.5474+28.674+55.5556+31.0068+51.9658+31.7602C48.376+32.5136+39.1078+33.5281+34.558+32.1986C30.0083+30.8691+16.879+26.5063+12.6756+25.9308C8.47228+25.3553+5.93241+25.1255+4.16443+25.9633C2.39644+26.8011+1.9774+29.3843+3.49275+32.1787C5.42137+35.7352+11.1824+40.026+18.0872+41.0827C31.1491+43.0816+45.4724+39.4205+52.0257+36.9562C58.579+34.492+62.3327+33.4212+61.1964+31.4845Z" stroke="#303fc8" stroke-linecap="round" fill="#9897c3"/>
<path stroke="#303fc8" stroke-linecap="round" d="M43.0306+40.5042C39.6303+41.4722+22.6707+44.0508+18.6678+43.3209C14.6648+42.591+11.238+42.6762+12.0625+45.044C12.8871+47.4119+15.6021+49.8097+18.9478+50.9322C22.2935+52.0547+28.789+51.7394+31.9333+50.9009C40.5491+48.603+45.8646+44.7642+47.0748+42.7319C47.9019+41.3429+46.4308+39.5363+43.0306+40.5042Z" opacity="1" fill="#9897c3" stroke-width="0.1" stroke-opacity="0" stroke-linejoin="round"/>
<path stroke-linecap="round" fill="#9897c3" stroke="#303fc8" opacity="1" stroke-width="0.1" stroke-linejoin="round" d="M47.341+44.4662C44.7246+46.0669+38.2167+50.9562+35.523+52.2822C32.8293+53.6082+28.6575+54.4511+26.7309+54.8844C23.0964+55.7019+22.5691+58.2109+26.1214+59.4774C29.6737+60.744+36.1298+58.5629+39.3744+55.9523C42.619+53.3418+47.7485+48.5047+48.7877+45.9484C49.3522+44.56+49.1812+43.3404+47.341+44.4662Z" stroke-opacity="0"/>
</g>
</g>
<g vectornator:layerName="图层 6" id="图层 6">
<path d="M48.2143+97.0012L180.132+97.0012L164.648+144.522L63.6984+144.522L48.2143+97.0012Z" opacity="1" fill="#72afdc"/>
<g opacity="1">
<path d="M65.2787+126.856C65.2787+128.725+66.4115+129.858+68.2524+129.858L73.6474+129.858C79.3964+129.858+82.5258+126.459+82.5258+120.186C82.5258+113.928+79.3964+110.529+73.6474+110.529L68.2524+110.529C66.4115+110.529+65.2787+111.662+65.2787+113.531L65.2787+126.856ZM71.2118+125.27L71.2118+115.103L72.5712+115.103C75.3041+115.103+76.4511+116.604+76.4511+120.186C76.4511+123.769+75.3041+125.27+72.5712+125.27L71.2118+125.27Z" fill="#5b8367" opacity="1"/>
<path d="M84.8906+126.856C84.8906+128.725+86.0234+129.858+87.8642+129.858L96.8417+129.858C98.2011+129.858+99.1074+128.952+99.1074+127.578C99.1074+126.205+98.2011+125.284+96.8559+125.284L90.767+125.284L90.767+122.282L96.7001+122.282C97.8471+122.282+98.6259+121.461+98.6259+120.229C98.6259+118.997+97.8471+118.147+96.7001+118.147L90.767+118.147L90.767+115.103L96.9408+115.103C98.2011+115.103+99.1074+114.154+99.1074+112.823C99.1074+111.492+98.2011+110.529+96.9408+110.529L87.8642+110.529C86.0234+110.529+84.8906+111.676+84.8906+113.545L84.8906+126.856Z" opacity="1" fill="#5b8367"/>
<path fill="#5b8367" d="M114.868+127.422C114.868+126.006+113.862+124.987+112.475+124.987L107.448+124.987L107.448+113.574C107.448+111.535+106.386+110.388+104.474+110.388C102.562+110.388+101.5+111.52+101.5+113.574L101.5+126.856C101.5+128.725+102.633+129.858+104.474+129.858L112.475+129.858C113.862+129.858+114.868+128.838+114.868+127.422Z" opacity="1"/>
<path fill="#5b8367" d="M116.581+126.856C116.581+128.725+117.714+129.858+119.555+129.858L128.532+129.858C129.892+129.858+130.798+128.952+130.798+127.578C130.798+126.205+129.892+125.284+128.546+125.284L122.457+125.284L122.457+122.282L128.391+122.282C129.538+122.282+130.316+121.461+130.316+120.229C130.316+118.997+129.538+118.147+128.391+118.147L122.457+118.147L122.457+115.103L128.631+115.103C129.892+115.103+130.798+114.154+130.798+112.823C130.798+111.492+129.892+110.529+128.631+110.529L119.555+110.529C117.714+110.529+116.581+111.676+116.581+113.545L116.581+126.856Z" opacity="1"/>
<path fill="#5b8367" d="M139.549+129.999C141.39+129.999+142.522+128.824+142.522+126.913L142.522+115.287L145.609+115.287C146.87+115.287+147.818+114.253+147.818+112.908C147.818+111.563+146.87+110.529+145.609+110.529L133.531+110.529C132.27+110.529+131.279+111.577+131.279+112.908C131.279+114.239+132.27+115.287+133.531+115.287L136.575+115.287L136.575+126.913C136.575+128.838+137.694+129.999+139.549+129.999Z" opacity="1"/>
<path opacity="1" d="M149.164+126.856C149.164+128.725+150.296+129.858+152.137+129.858L161.115+129.858C162.474+129.858+163.38+128.952+163.38+127.578C163.38+126.205+162.474+125.284+161.129+125.284L155.04+125.284L155.04+122.282L160.973+122.282C162.12+122.282+162.899+121.461+162.899+120.229C162.899+118.997+162.12+118.147+160.973+118.147L155.04+118.147L155.04+115.103L161.214+115.103C162.474+115.103+163.38+114.154+163.38+112.823C163.38+111.492+162.474+110.529+161.214+110.529L152.137+110.529C150.296+110.529+149.164+111.676+149.164+113.545L149.164+126.856Z" fill="#5b8367"/>
</g>
<path fill="#95e5ad" opacity="1" d="M102.321+126.951C102.321+125.572+103.438+124.455+104.817+124.455C106.195+124.455+107.313+125.572+107.313+126.951C107.313+128.329+106.195+129.447+104.817+129.447C103.438+129.447+102.321+128.329+102.321+126.951Z"/>
<path d="M137.054+127.041C137.054+125.663+138.171+124.545+139.55+124.545C140.928+124.545+142.046+125.663+142.046+127.041C142.046+128.42+140.928+129.537+139.55+129.537C138.171+129.537+137.054+128.42+137.054+127.041Z" opacity="1" fill="#95e5ad"/>
<path opacity="1" d="M117.26+113.405C117.26+112.026+118.377+110.909+119.756+110.909C121.134+110.909+122.252+112.026+122.252+113.405C122.252+114.783+121.134+115.901+119.756+115.901C118.377+115.901+117.26+114.783+117.26+113.405Z" fill="#95e5ad"/>
<path d="M65.9906+113.497C65.9906+112.119+67.1081+111.001+68.4865+111.001C69.865+111.001+70.9824+112.119+70.9824+113.497C70.9824+114.876+69.865+115.993+68.4865+115.993C67.1081+115.993+65.9906+114.876+65.9906+113.497Z" opacity="1" fill="#95e5ad"/>
</g>
</svg>
