<?xml version="1.0" encoding="UTF-8" standalone="no"?> <!-- Created with Vectornator for iOS (http://vectornator.io/) --><!DOCTYPE svg PUBLIC "-//W3C//DTD SVG 1.1//EN" "http://www.w3.org/Graphics/SVG/1.1/DTD/svg11.dtd">
<svg version="1.1" width="100%" xmlns:vectornator="http://vectornator.io" style="fill-rule:nonzero;clip-rule:evenodd;stroke-linecap:round;stroke-linejoin:round;" xml:space="preserve" height="100%" xmlns="http://www.w3.org/2000/svg" viewBox="0 0 226.8 153.09" xmlns:xlink="http://www.w3.org/1999/xlink">
<metadata>
<vectornator:setting value="false" key="VNPencilOnly"/>
<vectornator:setting key="WDUnits" value="Millimeters"/>
<vectornator:setting value="true" key="WDGuidesVisible"/>
<vectornator:setting key="WDSnapToGrid" value="true"/>
<vectornator:setting key="VNSnapToGuides" value="false"/>
<vectornator:setting value="false" key="WDOutlineMode"/>
<vectornator:setting value="false" key="IsTimeLapseWatermarkDisabled"/>
<vectornator:setting value="true" key="WDDisplayWhiteBackground"/>
<vectornator:setting key="WDSnapToPoints" value="false"/>
<vectornator:setting key="WDIsolateActiveLayer" value="false"/>
<vectornator:setting value="true" key="WDRulersVisible"/>
<vectornator:setting value="false" key="WDDynamicGuides"/>
<vectornator:setting key="WDCMYKEnabledKey" value="false"/>
<vectornator:setting key="VNDimensionsVisible" value="true"/>
<vectornator:setting value="false" key="UndoHistoryDisabled"/>
<vectornator:setting key="WDSnapToEdges" value="false"/>
</metadata>
<defs/>
<g id="图层 7" vectornator:layerName="图层 7">
<g opacity="1">
<path d="M197.187+89.6152L185.79+106.088L197.187+122.593L197.187+122.753L142.722+122.753L142.722+89.4872L197.187+89.4872L197.187+89.6152Z" fill="#fcd976" opacity="1"/>
<path fill="#7fa4ff" d="M179.935+97.2206L113.081+56.8283L111.034+114.33L179.935+97.2206Z" opacity="1"/>
</g>
<g opacity="1">
<path fill="#fcd976" d="M30.8688+89.6152L42.2666+106.088L30.8688+122.593L30.8688+122.753L85.3346+122.753L85.3346+89.4872L30.8688+89.4872L30.8688+89.6152Z" opacity="1"/>
<path opacity="1" fill="#7fa4ff" d="M48.1208+97.2206L114.975+56.8283L117.022+114.33L48.1208+97.2206Z"/>
</g>
</g>
<g vectornator:layerName="图层 5" id="图层 5">
<path stroke-linecap="round" fill="#4acb71" stroke-width="0.1" opacity="1" stroke-linejoin="round" d="M114.158+41.6049C97.1074+41.6049+81.9116+49.4525+71.9388+61.7299C73.6684+64.1934+74.6888+67.1765+74.6888+70.4174C74.6888+78.3584+68.5734+84.8047+60.8138+85.4486C60.1414+88.8653+59.7826+92.3974+59.7825+96.0111C59.7825+104.665+61.8761+112.812+65.47+120.074C66.0567+120.021+66.6197+119.917+67.22+119.917C78.0333+119.917+86.7825+128.667+86.7825+139.48C86.7825+140.606+86.6527+141.687+86.47+142.761C88.0664+143.708+89.744+144.507+91.4388+145.292C93.5529+142.798+96.5847+141.167+100.064+141.167C105.469+141.167+109.816+145.029+111.064+150.167C112.097+150.227+113.109+150.386+114.158+150.386C144.197+150.386+168.564+126.051+168.564+96.0111C168.564+85.7022+165.641+76.1033+160.658+67.8861C152.375+66.2727+145.984+59.5062+144.814+51.0736C136.08+45.0992+125.534+41.6049+114.158+41.6049Z" stroke-opacity="0" stroke="#303fc8"/>
<path stroke-width="0.1" d="M71.9388+61.7299C66.4548+68.4812+62.5582+76.5842+60.8138+85.4486C68.5734+84.8047+74.6888+78.3584+74.6888+70.4174C74.6888+67.1765+73.6684+64.1934+71.9388+61.7299Z" fill="#95e5ad" stroke-linecap="round" stroke="#303fc8" stroke-opacity="0" stroke-linejoin="round" opacity="1"/>
<g opacity="1">
<path fill="#ffffff" stroke-linecap="round" stroke-linejoin="round" stroke-opacity="0" d="M104.091+52.2086L117.696+50.5046C128.343+49.1712+138.055+56.7213+139.388+67.3684L141.092+80.9733C142.426+91.6204+134.876+101.333+124.229+102.666L110.624+104.37C99.9765+105.704+90.2643+98.1534+88.9308+87.5063L87.2269+73.9014C85.8934+63.2543+93.4436+53.5421+104.091+52.2086Z" opacity="1" stroke-width="0.1" stroke="#303fc8"/>
<path stroke-linejoin="round" opacity="1" d="M97.603+76.6034C97.603+67.4743+104.916+60.0736+113.937+60.0736C122.957+60.0736+130.27+67.4743+130.27+76.6034C130.27+85.7325+122.957+93.1331+113.937+93.1331C104.916+93.1331+97.603+85.7325+97.603+76.6034Z" stroke="#303fc8" stroke-opacity="0" stroke-width="0.1" stroke-linecap="round" fill="#ff735d"/>
<path fill="#000000" stroke-opacity="0" stroke-width="0.1" d="M101.824+76.3688C101.824+69.4825+107.402+63.9001+114.282+63.9001C121.163+63.9001+126.741+69.4825+126.741+76.3688C126.741+83.2551+121.163+88.8376+114.282+88.8376C107.402+88.8376+101.824+83.2551+101.824+76.3688Z" stroke-linecap="round" opacity="1" stroke="#303fc8" stroke-linejoin="round"/>
<path stroke="#303fc8" stroke-width="0.1" stroke-linejoin="round" stroke-opacity="0" opacity="1" stroke-linecap="round" d="M118.083+65.7657C118.083+63.9997+119.515+62.5681+121.281+62.5681C123.047+62.5681+124.478+63.9997+124.478+65.7657C124.478+67.5317+123.047+68.9633+121.281+68.9633C119.515+68.9633+118.083+67.5317+118.083+65.7657Z" fill="#ffffff"/>
</g>
<path stroke="#303fc8" stroke-linecap="round" stroke-width="0.1" d="M76.2685+110.345C76.2685+107.582+78.515+105.342+81.2863+105.342C84.0575+105.342+86.304+107.582+86.304+110.345C86.304+113.109+84.0575+115.349+81.2863+115.349C78.515+115.349+76.2685+113.109+76.2685+110.345Z" fill="#198539" opacity="1" stroke-linejoin="round" stroke-opacity="0"/>
<path opacity="1" d="M100.064+141.167C96.5847+141.167+93.5529+142.798+91.4388+145.292C97.4661+148.087+104.084+149.766+111.064+150.167C109.816+145.029+105.469+141.167+100.064+141.167Z" stroke-linecap="round" stroke-width="0.1" stroke-linejoin="round" stroke="#303fc8" fill="#95e5ad" stroke-opacity="0"/>
<path fill="#198539" stroke-linejoin="round" d="M67.22+119.917C66.6197+119.917+66.0567+120.021+65.47+120.074C70.1476+129.525+77.4413+137.405+86.47+142.761C86.6527+141.687+86.7825+140.606+86.7825+139.48C86.7825+128.667+78.0333+119.917+67.22+119.917Z" opacity="1" stroke-width="0.1" stroke="#303fc8" stroke-linecap="round" stroke-opacity="0"/>
<path stroke-linejoin="round" opacity="1" fill="#95e5ad" stroke-opacity="0" stroke-width="0.1" stroke="#303fc8" stroke-linecap="round" d="M144.814+51.0736C145.984+59.5062+152.375+66.2727+160.658+67.8861C156.619+61.2272+151.227+55.4607+144.814+51.0736Z"/>
<g opacity="1">
<path stroke-width="0.1" d="M122.695+118.47L122.757+122.533C122.773+123.789+121.763+124.829+120.507+124.845C119.251+124.862+118.211+123.851+118.195+122.595L118.132+118.564C117.665+118.604+117.143+118.701+116.663+118.752L116.726+122.752C116.742+124.007+115.732+125.048+114.476+125.064C113.22+125.081+112.18+124.07+112.163+122.814L112.132+119.408C109.249+119.939+106.393+120.674+103.882+121.814C102.743+122.331+101.846+123.413+102.413+124.939C103.339+127.43+114.077+137.369+119.538+135.908C124.016+134.71+124.98+130.758+127.976+126.564C130.391+123.182+131.322+122.125+131.226+120.72C131.13+119.316+130.1+118.533+128.07+118.377C127.393+118.325+124.67+118.452+122.695+118.47Z" stroke="#303fc8" stroke-linecap="round" opacity="1" stroke-linejoin="round" stroke-opacity="0" fill="#7552c0"/>
<path fill="#ffe85d" stroke-width="0.1" stroke-linecap="round" d="M122.695+118.47C121.041+118.486+120.291+118.38+118.132+118.564L118.195+122.595C118.211+123.851+119.251+124.862+120.507+124.845C121.763+124.829+122.773+123.789+122.757+122.533L122.695+118.47Z" stroke="#303fc8" stroke-linejoin="round" stroke-opacity="0" opacity="1"/>
<path stroke-opacity="0" d="M116.663+118.752C115.178+118.909+113.67+119.124+112.132+119.408L112.163+122.814C112.18+124.07+113.22+125.081+114.476+125.064C115.732+125.048+116.742+124.007+116.726+122.752L116.663+118.752Z" fill="#ffe85d" stroke-width="0.1" stroke-linecap="round" opacity="1" stroke="#303fc8" stroke-linejoin="round"/>
</g>
<g opacity="1">
<path stroke-opacity="0" opacity="1" fill="#ffd49b" stroke-width="0.1" stroke="#303fc8" stroke-linejoin="round" d="M168.267+53.3885C170.473+49.25+181.052+43.0035+184.493+38.7502C190.855+30.8837+195.634+16.8429+198.288+12.2653C202.543+4.92691+205.135+3.82941+207.412+3.97586C210.869+4.19819+214.014+11.3721+212.457+16.9594C211.089+21.866+210.926+33.0241+192.973+49.3499C187.306+54.5029+178.453+59.7079+172.423+59.6055C167.308+59.5186+167.139+55.5065+168.267+53.3885Z" stroke-linecap="round"/>
<path stroke-linecap="round" opacity="1" d="M178.611+55.5612C178.611+55.5612+183.959+53.1423+187.504+50.3219C191.049+47.5015+209.242+28.1383+211.148+24.3092C213.054+20.48+215.614+20.2793+216.994+22.4595C218.82+25.344+219.613+30.688+216.704+35.2432C210.742+44.579+199.886+52.4152+192.166+55.4085C184.446+58.4018+182.39+60.539+179.96+59.403C177.53+58.2669+178.611+55.5612+178.611+55.5612Z" fill="#ffd49b" stroke="#303fc8" stroke-linejoin="round" stroke-opacity="0" stroke-width="0.1"/>
<path d="M183.905+54.4468C186.511+54.0294+204.437+47.0048+207.449+45.4985C210.797+43.8245+215.065+37.6352+218.402+38.2361C221.886+38.8637+219.833+45.8867+217.662+47.84C215.869+49.4527+211.226+53.2999+199.849+56.2769C188.471+59.2538+181.957+59.5988+180.397+59.1372C179.157+58.7704+177.757+58.2876+178.285+56.8791C178.738+55.6726+180.724+54.9565+183.905+54.4468Z" stroke-linecap="round" fill="#ffd49b" stroke-opacity="0" stroke-linejoin="round" stroke-width="0.1" stroke="#303fc8" opacity="1"/>
<path fill="#ffd49b" stroke="#303fc8" stroke-linejoin="round" stroke-width="0.1" stroke-opacity="0" opacity="1" stroke-linecap="round" d="M181.439+58.5227C182.037+55.8265+201.362+53.9089+205.522+54.3284C209.683+54.7479+210.438+57.3879+210.073+58.5641C209.707+59.7402+208.798+60.8168+203.717+60.6751C198.636+60.5333+190.559+58.9731+188.229+58.8965C185.899+58.82+181.053+60.2649+181.439+58.5227Z"/>
<path stroke-linecap="round" stroke-linejoin="round" stroke-width="0.1" d="M176.904+56.5731C179.237+56.6161+191.488+58.499+193.579+59.6226C195.722+60.7746+197.035+63.6503+195.858+64.5023C194.681+65.3543+192.46+64.262+190.37+62.9211C188.28+61.5802+182.654+59.9808+179.696+59.7007C176.737+59.4207+172.119+60.0406+171.586+58.892C171.052+57.7433+171.422+57.1398+172.573+56.8251C173.677+56.5234+174.572+56.53+176.904+56.5731Z" stroke="#303fc8" fill="#ffd49b" stroke-opacity="0" opacity="1"/>
</g>
<g opacity="1">
<path stroke-opacity="0" fill="#ffe9cb" stroke-width="0.1" d="M174.329+54.0371C173.128+51.0082+177.422+49.2957+180.224+46.9287C183.026+44.5617+189.527+37.8782+191.277+33.4731C193.028+29.0681+197.663+16.0327+199.795+12.3645C201.927+8.69641+203.308+6.55248+205.056+5.67383C206.804+4.79517+209.098+6.0537+210.37+8.96728C211.987+12.6755+211.827+19.857+208.413+25.9511C201.955+37.4794+190.258+46.5207+184.284+50.172C178.31+53.8233+175.157+56.1242+174.329+54.0371Z" stroke-linecap="round" opacity="1" stroke="#303fc8" stroke-linejoin="round"/>
<path stroke-linecap="round" fill="#ffe9cb" d="M192.615+45.2621C195.469+43.1765+207.934+31.3906+209.821+27.7855C211.707+24.1805+213.882+21.531+215.242+23.6375C216.602+25.7441+216.822+29.3596+215.65+32.688C214.477+36.0164+210.233+40.9439+207.638+42.9072C200.526+48.287+194.23+50.1169+191.883+49.821C190.279+49.6188+189.76+47.3477+192.615+45.2621Z" stroke-width="0.1" stroke-opacity="0" stroke="#303fc8" stroke-linejoin="round" opacity="1"/>
<path stroke-linecap="round" stroke-width="0.1" stroke="#303fc8" d="M193.087+51.0977C195.958+50.0193+203.816+47.8954+206.519+46.5872C209.221+45.2789+212.452+42.5081+213.978+41.2556C216.859+38.8928+219.161+40.0203+217.975+43.6002C216.788+47.18+211.098+50.9288+207.044+51.8813C202.99+52.8338+196.021+53.9029+193.366+53.15C191.924+52.741+191.068+51.8561+193.087+51.0977Z" fill="#ffe9cb" opacity="1" stroke-opacity="0" stroke-linejoin="round"/>
</g>
<g opacity="1">
<path stroke-linejoin="round" stroke-opacity="0" stroke-linecap="round" stroke-width="0.1" fill="#ffd49b" d="M57.5318+53.3236C55.3458+49.1746+44.796+42.878+41.3759+38.6084C35.0506+30.7119+30.3388+16.6487+27.7064+12.0585C23.4865+4.70001+20.8992+3.59023+18.6217+3.72588C15.1641+3.93183+11.9847+11.0908+13.5154+16.6854C14.8597+21.5984+14.9703+32.7572+32.8459+49.1678C38.4881+54.3477+47.3165+59.5946+53.3463+59.5207C58.4616+59.4581+58.6504+55.4468+57.5318+53.3236Z" stroke="#303fc8" opacity="1"/>
<path stroke-width="0.1" stroke-opacity="0" stroke-linejoin="round" stroke-linecap="round" stroke="#303fc8" fill="#ffd49b" d="M47.1781+55.4472C47.1781+55.4472+41.8416+53.0029+38.3101+50.1657C34.7786+47.3286+16.6772+27.8794+14.7892+24.0412C12.9013+20.2031+10.3428+19.9902+8.95232+22.1639C7.11267+25.0397+6.29476+30.3799+9.18186+34.9489C15.0988+44.3128+25.9181+52.2004+33.6236+55.2303C41.3291+58.2601+43.3752+60.4071+45.8105+59.2825C48.2457+58.1579+47.1781+55.4472+47.1781+55.4472Z" opacity="1"/>
<path d="M41.8887+54.3077C39.2851+53.8779+21.393+46.7685+18.3876+45.2479C15.0477+43.5581+10.8091+37.3486+7.46976+37.9336C3.98214+38.5447+6.00271+45.5774+8.16434+47.5409C9.94901+49.1621+14.5735+53.0312+25.9371+56.0621C37.3006+59.093+43.8124+59.4689+45.3753+59.0147C46.6171+58.6538+48.019+58.1776+47.4973+56.7666C47.0504+55.558+45.0682+54.8325+41.8887+54.3077Z" stroke-width="0.1" opacity="1" stroke-linejoin="round" stroke-linecap="round" stroke="#303fc8" fill="#ffd49b" stroke-opacity="0"/>
<path d="M44.3357+58.3952C43.7507+55.6963+24.4351+53.687+20.2727+54.0868C16.1103+54.4866+15.3421+57.123+15.702+58.3009C16.062+59.4787+16.9661+60.5596+22.0478+60.442C27.1296+60.3243+35.2141+58.8024+37.5442+58.7369C39.8743+58.6714+44.7137+60.1393+44.3357+58.3952Z" stroke-linecap="round" fill="#ffd49b" stroke-width="0.1" opacity="1" stroke="#303fc8" stroke-linejoin="round" stroke-opacity="0"/>
<path d="M48.8797+56.4671C46.5474+56.4991+34.2867+58.3239+32.1908+59.4376C30.0422+60.5794+28.7158+63.4489+29.8886+64.3064C31.0613+65.164+33.2876+64.0822+35.384+62.7513C37.4805+61.4203+43.1136+59.8476+46.0736+59.5815C49.0335+59.3155+53.6483+59.9573+54.1875+58.8112C54.7267+57.6651+54.3595+57.0598+53.2095+56.7397C52.107+56.4327+51.2119+56.4351+48.8797+56.4671Z" stroke-linecap="round" stroke="#303fc8" opacity="1" stroke-linejoin="round" stroke-width="0.1" fill="#ffd49b" stroke-opacity="0"/>
</g>
<g opacity="1">
<path stroke-linecap="round" stroke-linejoin="round" opacity="1" stroke-width="0.1" fill="#ffe9cb" stroke-opacity="0" stroke="#303fc8" d="M51.2875+54.9602C52.5035+51.937+48.217+50.2042+45.4262+47.824C42.6353+45.4437+36.1665+38.7294+34.4371+34.3161C32.7077+29.9028+28.1338+16.8456+26.0195+13.1674C23.9052+9.48921+22.5343+7.33875+20.7905+6.45182C19.0466+5.56489+16.7462+6.81253+15.4612+9.72004C13.8258+13.4205+13.9521+20.6028+17.3371+26.7129C23.7407+38.2717+35.3944+47.3684+41.3509+51.048C47.3074+54.7275+50.4496+57.0434+51.2875+54.9602Z"/>
<path stroke-width="0.1" stroke-linecap="round" opacity="1" stroke="#303fc8" stroke-linejoin="round" fill="#ffe9cb" d="M33.044+46.0986C30.1992+43.9995+17.7905+32.1547+15.9209+28.5407C14.0513+24.9267+11.8889+22.2669+10.5192+24.367C9.14939+26.4671+8.9117+30.0816+10.0688+33.4155C11.2259+36.7494+15.4463+41.697+18.0322+43.6726C25.1179+49.086+31.4054+50.9457+33.7535+50.661C35.3584+50.4663+35.8887+48.1977+33.044+46.0986Z" stroke-opacity="0"/>
<path fill="#ffe9cb" stroke-opacity="0" opacity="1" stroke="#303fc8" stroke-linejoin="round" stroke-width="0.1" d="M32.5438+51.9319C29.6775+50.8399+21.8297+48.6788+19.1336+47.3578C16.4375+46.0367+13.22+43.2506+11.6993+41.9909C8.83043+39.6144+6.52255+40.7311+7.69194+44.3165C8.86132+47.9019+14.5342+51.6777+18.5837+52.6494C22.6332+53.6211+29.597+54.7232+32.2553+53.9829C33.6991+53.5808+34.5597+52.6999+32.5438+51.9319Z" stroke-linecap="round"/>
</g>
</g>
<g id="图层 6" vectornator:layerName="图层 6">
<path fill="#fcfb76" d="M48.2143+97.0012L180.132+97.0012L164.648+144.522L63.6984+144.522L48.2143+97.0012Z" opacity="1"/>
<g opacity="1">
<path opacity="1" fill="#198539" d="M72.3795+128.938C72.3795+131.065+73.6686+132.354+75.7633+132.354L81.9025+132.354C88.4444+132.354+92.0055+128.487+92.0055+121.349C92.0055+114.227+88.4444+110.359+81.9025+110.359L75.7633+110.359C73.6686+110.359+72.3795+111.649+72.3795+113.775L72.3795+128.938ZM79.131+127.133L79.131+115.564L80.6778+115.564C83.7877+115.564+85.0929+117.272+85.0929+121.349C85.0929+125.425+83.7877+127.133+80.6778+127.133L79.131+127.133Z"/>
<path d="M93.9552+122.589C93.9552+128.986+97.6935+132.838+104.187+132.838C110.681+132.838+114.403+129.003+114.403+122.589L114.403+120.301C114.403+113.856+110.681+109.989+104.187+109.989C97.6774+109.989+93.9552+113.84+93.9552+120.301L93.9552+122.589ZM100.723+120.253C100.723+117.159+101.98+115.387+104.187+115.387C106.379+115.387+107.635+117.159+107.635+120.253L107.635+122.573C107.635+125.667+106.395+127.44+104.187+127.44C101.98+127.44+100.723+125.667+100.723+122.573L100.723+120.253Z" opacity="1" fill="#198539"/>
<path opacity="1" d="M123.571+129.035L123.571+121.526L123.829+121.526L129.759+130.05C131.064+131.935+131.95+132.515+133.368+132.515C135.35+132.515+136.398+131.258+136.398+128.906L136.398+113.679C136.398+111.487+135.221+110.198+133.255+110.198C131.322+110.198+130.194+111.471+130.194+113.679L130.194+120.994L129.936+120.994L124.055+112.599C122.75+110.746+121.96+110.198+120.59+110.198C118.463+110.198+117.368+111.504+117.368+114.049L117.368+129.035C117.368+131.21+118.528+132.515+120.494+132.515C122.443+132.515+123.571+131.242+123.571+129.035Z" fill="#198539"/>
<path opacity="1" fill="#198539" d="M140.104+128.938C140.104+131.065+141.393+132.354+143.487+132.354L153.703+132.354C155.25+132.354+156.281+131.323+156.281+129.76C156.281+128.197+155.25+127.15+153.719+127.15L146.791+127.15L146.791+123.734L153.542+123.734C154.847+123.734+155.734+122.799+155.734+121.397C155.734+119.995+154.847+119.028+153.542+119.028L146.791+119.028L146.791+115.564L153.816+115.564C155.25+115.564+156.281+114.484+156.281+112.97C156.281+111.455+155.25+110.359+153.816+110.359L143.487+110.359C141.393+110.359+140.104+111.665+140.104+113.792L140.104+128.938Z"/>
</g>
<path opacity="1" fill="#95e5ad" d="M117.99+113.772C117.99+112.394+119.108+111.277+120.486+111.277C121.865+111.277+122.982+112.394+122.982+113.772C122.982+115.151+121.865+116.268+120.486+116.268C119.108+116.268+117.99+115.151+117.99+113.772Z"/>
<path opacity="1" fill="#95e5ad" d="M130.786+128.97C130.786+127.591+131.904+126.474+133.282+126.474C134.66+126.474+135.778+127.591+135.778+128.97C135.778+130.348+134.66+131.466+133.282+131.466C131.904+131.466+130.786+130.348+130.786+128.97Z"/>
<path d="M151.251+129.797C151.251+128.419+152.368+127.301+153.747+127.301C155.125+127.301+156.242+128.419+156.242+129.797C156.242+131.176+155.125+132.293+153.747+132.293C152.368+132.293+151.251+131.176+151.251+129.797Z" fill="#95e5ad" opacity="1"/>
<path opacity="1" d="M73.0619+113.417C73.0619+112.038+74.1794+110.921+75.5579+110.921C76.9363+110.921+78.0538+112.038+78.0538+113.417C78.0538+114.795+76.9363+115.913+75.5579+115.913C74.1794+115.913+73.0619+114.795+73.0619+113.417Z" fill="#95e5ad"/>
</g>
</svg>
