<svg xmlns="http://www.w3.org/2000/svg" viewBox="0 0 240.97 225.5"><defs><style>.cls-1{fill:#a7c9e7;}.cls-2{fill:#c5e4fe;}.cls-3{fill:#c7e6fd;}.cls-4{fill:#4acb71;}.cls-5{fill:#fff;}.cls-6{fill:#ff735d;}.cls-7{fill:#7552c0;}.cls-8{fill:#ffe85d;}.cls-9{fill:#198539;}.cls-10{fill:#83e599;}.cls-11{fill:#78e599;}.cls-12{fill:#7898c6;}</style></defs><title>资源 1</title><g id="图层_2" data-name="图层 2"><g id="图层_1-2" data-name="图层 1"><polygon class="cls-1" points="116 132.5 198 94.5 116.5 46.5 34 84.5 116 132.5"/><polygon class="cls-2" points="197.97 94.5 116.47 46.5 159.47 17.5 240.97 65.5 197.97 94.5"/><polygon class="cls-3" points="116.55 46.5 34.05 84.5 0.05 47.5 82.55 9.5 116.55 46.5"/><g id="图层_3" data-name="图层 3"><path class="cls-4" d="M182,139.65H79V51.5A51.5,51.5,0,0,1,130.5,0h0A51.5,51.5,0,0,1,182,51.5Z"/><rect class="cls-5" x="102.48" y="46.54" width="51.5" height="51.5" rx="22.02" transform="translate(-9.02 19.08) rotate(-8.22)"/><rect class="cls-6" x="111.75" y="55.81" width="32.96" height="32.96" rx="16.48"/><rect class="cls-7" x="93.63" y="108.34" width="77.66" height="11.26" rx="4.82"/><path class="cls-8" d="M125.27,127.49h-1.4a4.14,4.14,0,0,1-4.14-4.14v-15.1h9.68v15.1A4.14,4.14,0,0,1,125.27,127.49Z"/><path class="cls-8" d="M136.87,127.49h-1.41a4.14,4.14,0,0,1-4.14-4.14v-15H141v15A4.14,4.14,0,0,1,136.87,127.49Z"/><path class="cls-9" d="M79,113.9v25.75H91.08A15.75,15.75,0,0,0,79,113.9Z"/><circle class="cls-9" cx="88.89" cy="97.84" r="5.55"/><path class="cls-10" d="M79,46.83V80.39a17.49,17.49,0,0,0,0-33.56Z"/><path class="cls-11" d="M99.45,139.65h22.07a11.87,11.87,0,0,0-22.07,0Z"/><rect x="115.87" y="59.93" width="24.72" height="24.72" rx="12.36"/><path class="cls-10" d="M161.3,10.22A24.49,24.49,0,0,0,181.79,47,51.46,51.46,0,0,0,161.3,10.22Z"/><circle class="cls-5" cx="136.43" cy="62.44" r="3.1"/></g><polygon class="cls-1" points="198 187.5 115.5 225.5 115.5 132.5 198 94.5 198 187.5"/><polygon class="cls-12" points="115.5 225.5 34 177.5 34 84.5 115.5 132.5 115.5 225.5"/><polygon class="cls-3" points="232 131.5 149.5 169.5 115.5 132.5 198 94.5 232 131.5"/><polygon class="cls-2" points="81.5 171.5 0 123.5 34 84.5 115.5 132.5 81.5 171.5"/></g></g></svg>