<svg xmlns="http://www.w3.org/2000/svg" viewBox="0 0 317.65 133"><defs><style>.cls-1{fill:#fff;}.cls-2{fill:#ff735d;}.cls-3{fill:#4acb71;}.cls-4{fill:none;stroke:#fff;stroke-miterlimit:10;stroke-width:8px;}.cls-5{fill:#198539;}.cls-6{fill:#95e5ad;}</style></defs><title>资源 2</title><g id="图层_2" data-name="图层 2"><g id="图层_1-2" data-name="图层 1"><ellipse class="cls-1" cx="147.66" cy="66.5" rx="25.14" ry="27.5"/><ellipse class="cls-2" cx="147.66" cy="66.5" rx="18.74" ry="20.5"/><ellipse cx="147.66" cy="66.5" rx="12.75" ry="13.95"/><ellipse class="cls-1" cx="155.33" cy="56.43" rx="4.38" ry="4.79"/><rect class="cls-1" x="227.19" y="40.67" width="8" height="53.33" rx="4"/><rect class="cls-1" x="227.19" y="41.58" width="8" height="28.5" rx="4" transform="translate(287.02 -175.36) rotate(90)"/><rect class="cls-1" x="230.69" y="82.5" width="8" height="15" rx="4" transform="translate(324.69 -144.69) rotate(90)"/><rect class="cls-1" x="183.5" y="40.67" width="8" height="53.33" rx="4"/><rect class="cls-1" x="193.04" y="36.42" width="8" height="25" rx="4" transform="translate(140.88 -146.18) rotate(60)"/><rect class="cls-1" x="259.08" y="47.98" width="8" height="46.02" rx="4"/><circle class="cls-3" cx="263.08" cy="33.79" r="6.14"/><rect class="cls-1" x="279.65" y="45.17" width="8" height="48.83" rx="4"/><rect class="cls-1" x="309.65" y="58.17" width="8" height="35.83" rx="4"/><path class="cls-4" d="M283.65,63.17c0-7.73,6.72-14,15-14s15,6.27,15,14"/><rect class="cls-3" width="26" height="133" rx="13"/><rect class="cls-3" x="86" y="30" width="26" height="103" rx="13"/><rect class="cls-3" x="-8.2" y="85.79" width="86" height="26" rx="13" transform="translate(-59.66 53.54) rotate(-45)"/><rect class="cls-3" x="64.8" y="55.79" width="26" height="86" rx="13" transform="translate(-47.07 83.95) rotate(-45)"/><path class="cls-5" d="M25,100a16,16,0,0,0-4.89,31.23,12.88,12.88,0,0,0,2.67-2L40.37,111.6A16,16,0,0,0,25,100Z"/><circle class="cls-5" cx="81" cy="104" r="8"/><path class="cls-6" d="M95,114.5a30.33,30.33,0,0,0,6.11,18.31A13,13,0,0,0,112,120V87.15A30.49,30.49,0,0,0,95,114.5Z"/><path class="cls-6" d="M4,64a9.92,9.92,0,0,0-4,.84V83.16A10,10,0,1,0,4,64Z"/></g></g></svg>